<svg width="26" height="26" viewBox="0 0 26 26" fill="none" xmlns="http://www.w3.org/2000/svg">
<path fill-rule="evenodd" clip-rule="evenodd" d="M4.99885 16.0985C6.36792 14.19 8.7926 12.7546 12.8356 12.7546C16.8787 12.7546 19.3034 14.19 20.6724 16.0985C21.9956 17.943 22.2064 20.0572 22.2106 21.227C22.2148 22.4034 21.2286 23.1712 20.2175 23.1712H5.45382C4.4427 23.1712 3.45648 22.4034 3.46071 21.227C3.46491 20.0572 3.67566 17.943 4.99885 16.0985ZM5.54588 21.0879H20.1254C20.1039 20.0962 19.8905 18.5827 18.9796 17.3128C18.0684 16.0426 16.3303 14.8379 12.8356 14.8379C9.34094 14.8379 7.60286 16.0426 6.69167 17.3128C5.78074 18.5827 5.5674 20.0962 5.54588 21.0879Z" fill="#040921"/>
<path fill-rule="evenodd" clip-rule="evenodd" d="M12.8357 8.58789C13.9863 8.58789 14.9191 7.65515 14.9191 6.50456C14.9191 5.35396 13.9863 4.42122 12.8357 4.42122C11.6852 4.42122 10.7524 5.35396 10.7524 6.50456C10.7524 7.65515 11.6852 8.58789 12.8357 8.58789ZM12.8357 10.6712C15.1369 10.6712 17.0024 8.80574 17.0024 6.50456C17.0024 4.20337 15.1369 2.33789 12.8357 2.33789C10.5346 2.33789 8.66908 4.20337 8.66908 6.50456C8.66908 8.80574 10.5346 10.6712 12.8357 10.6712Z" fill="#040921"/>
</svg>
