<svg width="52" height="49" viewBox="0 0 52 49" fill="none" xmlns="http://www.w3.org/2000/svg">
<path opacity="0.1" d="M13.4346 21.7418V10.8043C12.8481 11.0067 12.2996 11.3857 11.8271 11.9152C11.3546 12.4447 10.9692 13.1121 10.6974 13.8715L8.21094 20.8812V37.063C8.57484 37.9776 9.10567 38.7388 9.74854 39.2677C10.3914 39.7966 11.1229 40.074 11.8675 40.0713H45.2989C46.4072 40.0713 47.4701 39.4514 48.2538 38.3479C49.0375 37.2444 49.4778 35.7477 49.4778 34.187V32.7748H21.2701C19.192 32.7748 17.199 31.6124 15.7296 29.5433C14.2601 27.4742 13.4346 24.6679 13.4346 21.7418Z" fill="#4B4768"/>
<path d="M8.4873 28.7072H15.8004M18.4123 28.7072H18.9346" stroke="#FF9494" stroke-width="3" stroke-linecap="round" stroke-linejoin="round"/>
<path d="M38.5654 21.0063H30.9493C30.8107 21.0063 30.6779 20.9288 30.5799 20.7908C30.482 20.6529 30.4269 20.4658 30.4269 20.2707V15.122C30.4269 14.9269 30.482 14.7398 30.5799 14.6019C30.6779 14.4639 30.8107 14.3864 30.9493 14.3864H34.9088C34.9776 14.3859 35.0457 14.4044 35.1094 14.441C35.173 14.4776 35.2309 14.5316 35.2797 14.5997L38.9363 19.7485C39.0099 19.8514 39.0602 19.9828 39.0806 20.1261C39.101 20.2693 39.0906 20.4179 39.0509 20.5528C39.0111 20.6877 38.9436 20.8029 38.8572 20.8837C38.7707 20.9644 38.6691 21.0071 38.5654 21.0063ZM16.1611 21.0063H26.2428C26.3813 21.0063 26.5142 20.9288 26.6121 20.7908C26.7101 20.6529 26.7651 20.4658 26.7651 20.2707V15.122C26.7651 14.9269 26.7101 14.7398 26.6121 14.6019C26.5142 14.4639 26.3813 14.3864 26.2428 14.3864H18.1931C18.1006 14.3867 18.0097 14.4215 17.9298 14.4874C17.85 14.5533 17.784 14.6479 17.7387 14.7615L15.7067 19.9103C15.662 20.0221 15.6389 20.1485 15.6397 20.2768C15.6404 20.405 15.665 20.5308 15.7109 20.6416C15.7569 20.7524 15.8226 20.8443 15.9015 20.9083C15.9805 20.9723 16.07 21.006 16.1611 21.0063Z" fill="#FF9494"/>
<path d="M40.3939 20.6679L34.5068 12.3416C34.1184 11.7953 33.6574 11.3621 33.1501 11.0668C32.6428 10.7715 32.0992 10.6198 31.5502 10.6204H14.9704C14.194 10.6196 13.4328 10.9234 12.7722 11.4976C12.1116 12.0719 11.5776 12.8939 11.2302 13.8715L8.64973 21.146C8.36024 21.9638 8.21001 22.8654 8.21094 23.7792V34.1576C8.21094 35.7182 8.65122 37.2149 9.43492 38.3184C10.2186 39.422 11.2815 40.0419 12.3899 40.0419H45.8213C46.9296 40.0419 47.9925 39.422 48.7762 38.3184C49.5599 37.2149 50.0002 35.7182 50.0002 34.1576V28.2733C50.0002 26.7127 49.5599 25.216 48.7762 24.1125C47.9925 23.009 46.9296 22.389 45.8213 22.389H43.3714C42.8189 22.3935 42.2713 22.2437 41.7602 21.9483C41.2492 21.6528 40.7847 21.2176 40.3939 20.6679V20.6679Z" stroke="#4B4668" stroke-width="3" stroke-linecap="round" stroke-linejoin="round"/>
<path d="M18.1515 46.75C20.7479 46.75 22.8528 43.7862 22.8528 40.1301C22.8528 36.4741 20.7479 33.5103 18.1515 33.5103C15.555 33.5103 13.4502 36.4741 13.4502 40.1301C13.4502 43.7862 15.555 46.75 18.1515 46.75Z" fill="white" stroke="#4B4668" stroke-width="3" stroke-linecap="round" stroke-linejoin="round"/>
<path d="M39.046 46.75C41.6425 46.75 43.7473 43.7862 43.7473 40.1301C43.7473 36.4741 41.6425 33.5103 39.046 33.5103C36.4496 33.5103 34.3447 36.4741 34.3447 40.1301C34.3447 43.7862 36.4496 46.75 39.046 46.75Z" fill="white" stroke="#4B4668" stroke-width="3" stroke-linecap="round" stroke-linejoin="round"/>
<path d="M27.8152 28.7073H29.9047M49.8956 31.0683H48.7151C48.4928 31.0703 48.2725 31.0106 48.0666 30.8926C47.8607 30.7746 47.6734 30.6007 47.5153 30.3808C47.3571 30.1608 47.2313 29.8992 47.145 29.6108C47.0587 29.3224 47.0135 29.0129 47.0122 28.6999C47.0135 28.387 47.0587 28.0774 47.145 27.789C47.2313 27.5006 47.3571 27.239 47.5153 27.0191C47.6734 26.7991 47.8607 26.6252 48.0666 26.5072C48.2725 26.3893 48.4928 26.3295 48.7151 26.3315H49.5665M27.4235 46.75H45.9257M8.43025 46.75H23.7773M5.87588 46.75H6.299M5.35352 31.6715H7.96534M6.92061 33.5103H7.96534M35.9537 22.4773H28.3376C28.1991 22.4773 28.0662 22.3998 27.9682 22.2618C27.8703 22.1239 27.8152 21.9368 27.8152 21.7417V16.593C27.8152 16.3979 27.8703 16.2108 27.9682 16.0729C28.0662 15.9349 28.1991 15.8574 28.3376 15.8574H32.2971C32.3659 15.8569 32.434 15.8754 32.4977 15.912C32.5613 15.9486 32.6192 16.0026 32.668 16.0707L36.3246 21.2195C36.3982 21.3224 36.4485 21.4538 36.4689 21.5971C36.4893 21.7403 36.479 21.8889 36.4392 22.0238C36.3994 22.1587 36.332 22.2739 36.2455 22.3547C36.159 22.4354 36.0574 22.4781 35.9537 22.4773V22.4773ZM13.5494 22.4773H23.6311C23.7696 22.4773 23.9025 22.3998 24.0005 22.2618C24.0984 22.1239 24.1535 21.9368 24.1535 21.7417V16.593C24.1535 16.3979 24.0984 16.2108 24.0005 16.0729C23.9025 15.9349 23.7696 15.8574 23.6311 15.8574H15.5814C15.4889 15.8577 15.398 15.8925 15.3182 15.9584C15.2383 16.0243 15.1723 16.1189 15.127 16.2326L13.095 21.3813C13.0503 21.4931 13.0272 21.6195 13.028 21.7478C13.0287 21.876 13.0533 22.0018 13.0992 22.1126C13.1452 22.2234 13.2109 22.3153 13.2899 22.3793C13.3688 22.4433 13.4583 22.477 13.5494 22.4773Z" stroke="#4B4668" stroke-width="3" stroke-linecap="round" stroke-linejoin="round"/>
<g opacity="0.2">
<path d="M3.30591 20.5796V24.2573M4.61183 22.4184H2" stroke="#4B4668" stroke-width="3" stroke-linecap="round" stroke-linejoin="round"/>
</g>
<g opacity="0.2">
<path d="M44.97 13.5919V17.2696M46.2759 15.4308H43.6641" stroke="#4B4668" stroke-width="3" stroke-linecap="round" stroke-linejoin="round"/>
</g>
<path opacity="0.5" d="M31.2102 5.92769C31.9314 5.92769 32.5161 5.10441 32.5161 4.08884C32.5161 3.07328 31.9314 2.25 31.2102 2.25C30.489 2.25 29.9043 3.07328 29.9043 4.08884C29.9043 5.10441 30.489 5.92769 31.2102 5.92769Z" stroke="#FF9494" stroke-width="3" stroke-linecap="round" stroke-linejoin="round"/>
</svg>
