<svg width="49" height="49" viewBox="0 0 49 49" fill="none" xmlns="http://www.w3.org/2000/svg">
<path d="M20.3504 45.41C19.762 45.4145 19.1787 45.3041 18.6344 45.0852C18.0902 44.8663 17.596 44.5432 17.1807 44.135V44.135L4.19567 31.415C3.75639 30.9838 3.41375 30.4676 3.18964 29.8994C2.96553 29.3312 2.86487 28.7234 2.8941 28.115C2.97008 26.8803 3.51657 25.7187 4.42535 24.86L24.5 5.17997C24.9667 4.69833 25.5299 4.31644 26.1545 4.0583C26.779 3.80016 27.4513 3.67135 28.1291 3.67997L40.8079 3.99497C41.9588 4.01846 43.0548 4.4819 43.8616 5.28629C44.6685 6.09069 45.1222 7.17226 45.126 8.29997L45.4475 20.705C45.453 21.3707 45.32 22.0305 45.0568 22.6443C44.7935 23.258 44.4055 23.8128 43.9163 24.275L23.8722 44C23.0011 44.8976 21.812 45.4344 20.5494 45.5L20.3504 45.41ZM19.355 42.02C19.4954 42.1555 19.6635 42.2604 19.8483 42.3276C20.033 42.3949 20.2303 42.4229 20.4269 42.41C20.907 42.3767 21.3585 42.1742 21.6979 41.84L41.8032 22.145C41.9884 21.9703 42.1355 21.7605 42.2355 21.5285C42.3356 21.2964 42.3864 21.0469 42.385 20.795L42.0635 8.37497C42.0635 8.02091 41.9199 7.68134 41.6643 7.43098C41.4087 7.18062 41.0621 7.03997 40.7007 7.03997L28.0219 6.72497C27.7652 6.72616 27.5112 6.77714 27.2747 6.87497C27.0381 6.9728 26.8237 7.11555 26.6438 7.29497L6.53848 26.99C6.19727 27.3224 5.99055 27.7647 5.9566 28.235C5.94338 28.4276 5.97203 28.6208 6.04066 28.8018C6.10929 28.9828 6.21633 29.1475 6.35473 29.285L19.355 42.02ZM34.9585 18.5C33.7405 18.4989 32.5729 18.0241 31.7122 17.18C31.0692 16.5509 30.6311 15.749 30.4534 14.876C30.2757 14.0029 30.3663 13.0978 30.7139 12.2752C31.0614 11.4526 31.6502 10.7495 32.4057 10.2548C33.1613 9.76007 34.0497 9.49601 34.9585 9.49601C35.8673 9.49601 36.7557 9.76007 37.5112 10.2548C38.2668 10.7495 38.8556 11.4526 39.2031 12.2752C39.5506 13.0978 39.6413 14.0029 39.4635 14.876C39.2858 15.749 38.8477 16.5509 38.2047 17.18C37.3441 18.0241 36.1764 18.4989 34.9585 18.5V18.5ZM34.9585 12.5C34.757 12.4988 34.5572 12.5367 34.3706 12.6113C34.1841 12.686 34.0144 12.7959 33.8713 12.935C33.7285 13.0748 33.6153 13.2409 33.538 13.4236C33.4607 13.6063 33.421 13.8022 33.421 14C33.421 14.1978 33.4607 14.3936 33.538 14.5763C33.6153 14.7591 33.7285 14.9251 33.8713 15.065C34.0141 15.2048 34.1836 15.3158 34.3701 15.3915C34.5566 15.4672 34.7566 15.5061 34.9585 15.5061C35.1604 15.5061 35.3603 15.4672 35.5469 15.3915C35.7334 15.3158 35.9029 15.2048 36.0457 15.065C36.1876 14.9248 36.2999 14.7586 36.3761 14.5758C36.4523 14.3931 36.4909 14.1974 36.4897 14C36.4909 13.8026 36.4523 13.6069 36.3761 13.4241C36.2999 13.2414 36.1876 13.0751 36.0457 12.935C35.9026 12.7959 35.7329 12.686 35.5463 12.6113C35.3598 12.5367 35.16 12.4988 34.9585 12.5Z" fill="#4B4668"/>
</svg>
