<svg width="205" height="42" viewBox="0 0 205 42" fill="none" xmlns="http://www.w3.org/2000/svg">
<circle cx="76" cy="21" r="20.5" stroke="#583762"/>
<circle cx="21" cy="21" r="21" fill="#583762"/>
<circle cx="129" cy="21" r="20.5" stroke="#583762"/>
<path d="M123.593 15C122.63 15 122 15.6336 122 16.4665C122 17.2809 122.611 17.9326 123.556 17.9326H123.574C124.556 17.9326 125.167 17.2809 125.167 16.4665C125.149 15.6336 124.556 15 123.593 15V15Z" fill="#583762"/>
<path d="M122.166 19.0942H124.982V27.582H122.166L122.166 19.0942Z" fill="#583762"/>
<path d="M131.892 18.894C130.373 18.894 129.355 20.3242 129.355 20.3242V19.0932H126.539V27.5811H129.354V22.8411C129.354 22.5874 129.373 22.334 129.447 22.1526C129.651 21.6459 130.114 21.1209 130.892 21.1209C131.911 21.1209 132.318 21.8993 132.318 23.0404V27.5811H135.133V22.7143C135.133 20.1072 133.744 18.894 131.892 18.894Z" fill="#583762"/>
<path d="M72.132 28.8788C79.4901 28.8788 83.5139 22.7703 83.5139 17.4734C83.5139 17.2999 83.5104 17.1271 83.5026 16.9553C84.2855 16.3875 84.9612 15.6846 85.4981 14.8795C84.7813 15.1989 84.0099 15.4136 83.2008 15.5107C84.0267 15.0143 84.6608 14.2292 84.9599 13.2935C84.1746 13.7603 83.3155 14.0893 82.4197 14.2664C81.6897 13.4872 80.6503 13 79.4995 13C77.2905 13 75.4989 14.7951 75.4989 17.008C75.4989 17.3227 75.5341 17.6286 75.6027 17.9221C72.2779 17.7544 69.3296 16.1594 67.3568 13.7339C67.0134 14.3261 66.8152 15.0144 66.8152 15.7487C66.8152 17.1393 67.5215 18.3673 68.5954 19.0854C67.9391 19.0652 67.3226 18.8846 66.7836 18.5841C66.783 18.601 66.783 18.6173 66.783 18.6353C66.783 20.5766 68.1619 22.1976 69.9926 22.5649C69.6488 22.6586 69.294 22.706 68.9377 22.7059C68.6804 22.7059 68.4295 22.6805 68.1858 22.6336C68.695 24.2263 70.1719 25.3853 71.9228 25.4178C70.5536 26.4932 68.8288 27.1337 66.9543 27.1337C66.6318 27.1337 66.3131 27.1152 66 27.0782C67.7705 28.2153 69.8728 28.8789 72.1321 28.8789" fill="#583762"/>
<path d="M17.2657 21.7913H19.0714V29.2401C19.0714 29.3872 19.1903 29.5063 19.3371 29.5063H22.3987C22.5454 29.5063 22.6643 29.3872 22.6643 29.2401V21.8264H24.7401C24.8751 21.8264 24.9886 21.7249 25.0041 21.5905L25.3193 18.8483C25.328 18.7728 25.3041 18.6972 25.2537 18.6406C25.2033 18.584 25.1312 18.5516 25.0554 18.5516H22.6644V16.8326C22.6644 16.3144 22.9429 16.0516 23.4921 16.0516C23.5704 16.0516 25.0554 16.0516 25.0554 16.0516C25.2022 16.0516 25.3211 15.9324 25.3211 15.7854V13.2682C25.3211 13.1211 25.2022 13.002 25.0554 13.002H22.901C22.8858 13.0012 22.852 13 22.8023 13C22.4285 13 21.1291 13.0735 20.1027 14.0197C18.9654 15.0682 19.1235 16.3237 19.1613 16.5414V18.5515H17.2657C17.1189 18.5515 17 18.6707 17 18.8177V21.525C17 21.6721 17.1189 21.7913 17.2657 21.7913Z" fill="white"/>
<circle cx="184" cy="21" r="20.5" stroke="#583762"/>
<path d="M186.271 13.0815C187.07 13.1001 187.621 13.2179 188.101 13.3933C188.609 13.5738 189.067 13.8584 189.451 14.2358C189.84 14.6042 190.146 15.0537 190.344 15.5497C190.539 16.025 190.68 16.5692 190.731 17.3682C190.786 18.1732 190.8 18.4288 190.843 20.4723C190.885 22.5158 190.882 22.7718 190.863 23.5752C190.845 24.3757 190.727 24.9282 190.552 25.4084C190.372 25.9182 190.088 26.3771 189.711 26.7616C189.343 27.1517 188.895 27.4581 188.4 27.6568C187.925 27.852 187.382 27.9928 186.584 28.0447C185.781 28.0998 185.526 28.114 183.486 28.1566C181.447 28.1993 181.191 28.1958 180.389 28.1773C179.591 28.1587 179.039 28.0407 178.56 27.8654C178.051 27.6848 177.593 27.3974 177.209 27.023C176.82 26.6546 176.514 26.2051 176.316 25.7091C176.121 25.2337 175.981 24.6896 175.929 23.8904C175.877 23.0886 175.863 22.8328 175.821 20.7893C175.778 18.7458 175.782 18.4898 175.8 17.6864C175.819 16.8859 175.937 16.3334 176.112 15.8532C176.294 15.3489 176.58 14.8884 176.951 14.5012C177.321 14.114 177.769 13.8087 178.264 13.6048C178.738 13.4097 179.282 13.2688 180.079 13.2169C180.879 13.1648 181.135 13.1507 183.174 13.108C185.214 13.0654 185.469 13.063 186.271 13.0815ZM180.166 14.5652C179.433 14.6129 179.039 14.7447 178.777 14.8531C178.128 15.1197 177.619 15.651 177.381 16.312C177.283 16.5788 177.168 16.9812 177.151 17.7141C177.133 18.5087 177.129 18.747 177.17 20.7552C177.212 22.7635 177.226 23.0044 177.278 23.7947C177.325 24.5291 177.456 24.9235 177.565 25.1859C177.692 25.5097 177.889 25.8027 178.143 26.0386C178.392 26.2835 178.689 26.4684 179.018 26.5822C179.284 26.6796 179.686 26.7947 180.417 26.8117C181.21 26.8305 181.448 26.8343 183.452 26.7924C185.457 26.7504 185.697 26.7367 186.486 26.6848C187.219 26.6372 187.612 26.5054 187.874 26.397C188.198 26.2696 188.49 26.0723 188.725 25.8143C188.97 25.5652 189.154 25.2671 189.268 24.9382C189.365 24.6714 189.48 24.2689 189.497 23.5361C189.516 22.7415 189.52 22.5031 189.478 20.495C189.436 18.4837 189.423 18.2458 189.371 17.4555C189.323 16.7211 189.192 16.3267 189.084 16.0643C188.957 15.7405 188.76 15.4474 188.505 15.2116C188.257 14.9667 187.959 14.7818 187.631 14.668C187.365 14.5706 186.963 14.4555 186.232 14.4384C185.439 14.4197 185.201 14.4158 183.196 14.4577C181.192 14.4996 180.957 14.5134 180.166 14.5652L180.166 14.5652Z" fill="#583762"/>
<path d="M187.187 20.5465C187.232 22.6812 185.539 24.4492 183.409 24.4938C181.278 24.5384 179.514 22.8426 179.469 20.7079C179.425 18.5733 181.118 16.8052 183.248 16.7607C185.379 16.7161 187.143 18.4118 187.187 20.5465ZM180.825 20.6796C180.854 22.0644 181.998 23.1643 183.38 23.1354C184.763 23.1065 185.86 21.9597 185.832 20.5749C185.803 19.19 184.659 18.0902 183.276 18.1191C181.894 18.148 180.796 19.2947 180.825 20.6796V20.6796Z" fill="#583762"/>
<path d="M187.239 15.6219C186.742 15.6323 186.347 16.0449 186.357 16.5434C186.368 17.0418 186.779 17.4374 187.277 17.427C187.774 17.4166 188.169 17.0041 188.159 16.5057C188.149 16.0072 187.737 15.6115 187.239 15.6219L187.239 15.6219Z" fill="#583762"/>
</svg>
