<svg width="20" height="21" viewBox="0 0 20 21" fill="none" xmlns="http://www.w3.org/2000/svg">
<path d="M19.9599 6.79152C19.8808 6.60502 19.6981 6.48389 19.4958 6.48389H13.346L10.4567 0.291347C10.3737 0.11348 10.1957 0 10 0C9.80428 0 9.62629 0.11348 9.54332 0.291347L6.65404 6.48389H0.50422C0.301851 6.48389 0.11918 6.60502 0.0401525 6.79152C-0.0388753 6.97802 0.00076476 7.19388 0.141335 7.33992L4.69535 12.0725L2.86395 19.4132C2.81496 19.6095 2.88759 19.8163 3.04859 19.9384C3.2096 20.0605 3.42797 20.0746 3.60326 19.9744L10 16.3115L16.3967 19.9744C16.4745 20.0191 16.5607 20.041 16.6469 20.041C16.7545 20.041 16.8618 20.0065 16.9514 19.9384C17.1124 19.8163 17.185 19.6095 17.136 19.4132L15.3047 12.0725L19.8587 7.33992C19.9992 7.19387 20.0389 6.97802 19.9599 6.79152Z" fill="#FF6A28"/>
</svg>
